<svg width="96" height="48" viewBox="0 0 96 48" fill="none" xmlns="http://www.w3.org/2000/svg">
  <rect width="96" height="48" rx="4" fill="#1E1E1E"/>
  <path d="M36 14C30.4772 14 26 18.4772 26 24C26 29.5228 30.4772 34 36 34C41.5228 34 46 29.5228 46 24C46 18.4772 41.5228 14 36 14ZM36 30C32.6863 30 30 27.3137 30 24C30 20.6863 32.6863 18 36 18C39.3137 18 42 20.6863 42 24C42 27.3137 39.3137 30 36 30Z" fill="#5741D9"/>
  <path d="M60 14C54.4772 14 50 18.4772 50 24C50 29.5228 54.4772 34 60 34C65.5228 34 70 29.5228 70 24C70 18.4772 65.5228 14 60 14ZM60 30C56.6863 30 54 27.3137 54 24C54 20.6863 56.6863 18 60 18C63.3137 18 66 20.6863 66 24C66 27.3137 63.3137 30 60 30Z" fill="#5741D9"/>
  <path d="M48 19V29M48 19C48 19 50 21 48 24C46 27 48 29 48 29" stroke="#5741D9" stroke-width="2"/>
</svg>
